<?xml version="1.0" standalone="no"?>
<!DOCTYPE svg PUBLIC "-//W3C//DTD SVG 20010904//EN"
 "http://www.w3.org/TR/2001/REC-SVG-20010904/DTD/svg10.dtd">
<svg version="1.0" xmlns="http://www.w3.org/2000/svg"
 width="260.000000pt" height="260.000000pt" viewBox="0 0 260.000000 260.000000"
 preserveAspectRatio="xMidYMid meet">
<metadata>
Created by potrace 1.14, written by Peter Selinger 2001-2017
</metadata>
<g transform="translate(0.000000,260.000000) scale(0.100000,-0.100000)"
fill="#000000" stroke="none">
<path d="M493 2365 c-23 -7 -45 -10 -48 -7 -3 3 -5 0 -5 -7 0 -7 -4 -10 -8 -7
-5 3 -45 -13 -90 -35 -115 -56 -207 -146 -267 -262 -25 -48 -43 -92 -40 -97 3
-5 0 -12 -6 -15 -5 -4 -8 -13 -5 -21 3 -7 0 -16 -5 -20 -6 -3 -9 -15 -6 -25 3
-10 1 -21 -3 -24 -11 -7 -10 -285 1 -285 5 0 11 11 15 25 3 14 10 25 15 25 5
0 9 6 9 13 0 18 76 106 131 151 38 31 133 82 185 100 117 38 143 39 954 42
687 2 803 5 855 19 33 8 69 17 79 20 11 2 23 10 26 16 4 6 11 10 16 10 15 -2
99 56 134 91 69 71 131 187 144 274 l6 34 -1023 -1 c-810 0 -1031 -3 -1064
-14z"/>
<path d="M564 1771 c-5 -5 -18 -8 -70 -15 -46 -7 -191 -65 -211 -84 -9 -9 -17
-15 -17 -12 -1 2 -12 -5 -25 -15 -89 -74 -114 -131 -114 -256 1 -113 64 -209
180 -271 27 -15 59 -29 69 -31 10 -1 24 -5 29 -8 31 -19 152 -23 756 -24 496
-1 673 -4 695 -13 16 -7 40 -29 54 -48 21 -31 24 -48 24 -113 0 -91 -24 -140
-77 -162 -26 -11 -200 -14 -939 -14 -498 0 -909 -3 -912 -6 -12 -11 24 -107
62 -165 58 -90 140 -163 247 -221 52 -28 164 -65 175 -58 5 3 11 2 14 -3 8
-14 78 -15 771 -15 599 -1 762 4 788 20 5 3 21 7 36 8 69 7 207 74 285 139 48
40 131 147 138 176 2 8 5 17 9 20 8 8 39 95 44 126 3 16 9 47 13 69 10 48 6
186 -5 194 -4 3 -9 17 -10 31 -4 58 -42 152 -91 225 -40 59 -145 159 -156 148
-3 -4 -6 -2 -6 4 0 5 -24 20 -52 34 -29 13 -54 27 -56 32 -2 4 -11 7 -20 7 -9
0 -36 7 -60 15 -73 26 -170 36 -327 37 -82 0 -163 -1 -180 -2 -16 -1 -42 1
-57 3 -16 2 -28 1 -28 -3 0 -9 -26 -7 -36 3 -4 3 -15 2 -25 -4 -13 -7 -19 -6
-19 1 0 7 -6 8 -19 0 -14 -7 -22 -7 -26 0 -5 8 -11 8 -19 1 -9 -7 -16 -7 -24
1 -9 9 -12 9 -12 -1 0 -11 -3 -11 -15 -1 -8 7 -15 8 -15 3 0 -5 -9 -9 -20 -9
-11 0 -20 4 -20 9 0 4 -5 5 -11 2 -18 -12 -69 -12 -69 -1 0 7 -3 8 -8 1 -9
-13 -72 -15 -72 -3 0 5 -6 6 -12 2 -17 -11 -336 -12 -372 -2 -64 17 -88 63
-92 173 -1 33 -2 65 -3 71 -1 10 -78 14 -87 5z"/>
</g>
</svg>
